<?xml version="1.0" standalone="no"?>
<!DOCTYPE svg PUBLIC "-//W3C//DTD SVG 1.1//EN" "http://www.w3.org/Graphics/SVG/1.1/DTD/svg11.dtd" >
<svg xmlns="http://www.w3.org/2000/svg" xmlns:xlink="http://www.w3.org/1999/xlink" version="1.1">
<metadata></metadata>
<defs>
<font id="universalis_adf_stdbold" horiz-adv-x="1157" >
<font-face units-per-em="2048" ascent="1536" descent="-512" />
<missing-glyph horiz-adv-x="675" />
<glyph unicode="AE" horiz-adv-x="1841" d="M6 0l623 1456l41 -33h635l77 -219h-616l108 -264h637l76 -217h-622l211 -502h589l74 -221h-840l-131 336h-483l-135 -336h-244zM471 555h317l-159 406z" />
<glyph unicode="ae" horiz-adv-x="1736" d="M80 283q0 313 471 313h172q0 63 -58.5 99t-164.5 36q-56 -2 -123 -22.5t-115 -59.5l-110 166q165 123 364 123q94 0 155.5 -16t98 -40.5t96.5 -80.5q63 60 144.5 98.5t167.5 38.5h10h10q198 0 318 -116.5t137 -317.5v-94h-709q0 -93 73.5 -158.5t182.5 -65.5h19 q156 0 262 109l149 -115q-67 -96 -181 -148.5t-251 -54.5q-136 1 -219.5 53.5t-136.5 145.5q-72 -196 -377 -196q-181 0 -283 79t-102 224zM338 295q0 -54 39 -84.5t108 -30.5q108 0 173 62.5t65 167.5h-109q-157 0 -216.5 -25t-59.5 -90zM967 596h448q-16 66 -78 99.5 t-147 33.5q-77 0 -143.5 -44t-79.5 -89z" />
<glyph unicode="OE" horiz-adv-x="2271" d="M80 711q0 338 201.5 541.5t533.5 203.5q152 0 274.5 -60t204.5 -173v194h883v-219h-637v-256h637v-221h-637v-504h653v-203h-899v203q-78 -118 -200.5 -180t-278.5 -62q-335 0 -535 199.5t-200 536.5zM352 711q0 -230 129.5 -368t333.5 -138q201 0 334 121t145 338v81 q-12 214 -143.5 341.5t-335.5 127.5q-98 0 -182.5 -34.5t-146.5 -97.5t-98 -159t-36 -212z" />
<glyph unicode="oe" horiz-adv-x="1904" d="M86 455q0 133 68.5 244t186.5 175t257 64q123 0 218.5 -52t156.5 -147q59 96 157.5 147.5t223.5 51.5h10q200 0 321 -116.5t138 -317.5v-47v-37h-723q0 -96 78 -165t188 -69h16q161 0 267 115l149 -121q-67 -95 -182 -148t-252 -55q-125 0 -226 56.5t-163 154.5 q-64 -100 -159.5 -155.5t-217.5 -55.5q-213 0 -362.5 139t-149.5 339zM350 455q0 -110 73.5 -189.5t176.5 -79.5q102 0 175 79t73 190q0 110 -73 192t-175 82t-176 -82t-74 -192zM1120 598h463q-16 65 -79 98t-148 33q-78 0 -150.5 -44t-85.5 -87z" />
<glyph unicode="&#xfb01;" horiz-adv-x="1153" d="M74 725v193h137v260q0 169 80 263t248 95h196v-215h-188q-55 0 -75.5 -31t-22.5 -96v-276h563v-918h-236v725h-327v-725h-238v725h-137zM750 1268q0 60 41.5 100.5t103.5 40.5t103.5 -40.5t41.5 -100.5t-42 -102t-103 -42t-103 42t-42 102z" />
<glyph unicode="&#xfb02;" horiz-adv-x="1153" d="M74 725v193h137v249q0 363 338 369h463v-1536h-236v1321h-229q-54 0 -75 -35.5t-23 -101.5v-266h167v-193h-167v-725h-238v725h-137z" />
<glyph unicode="&#xfb03;" horiz-adv-x="1759" d="M57 725v193h136v249q0 363 327 369h180v-215h-182q-52 0 -72.5 -35.5t-23.5 -103.5v-264h405v260q0 169 80 263t248 95h197v-215h-189q-55 0 -75.5 -31t-22.5 -96v-276h563v-918h-235v725h-328v-725h-238v725h-405v-725h-229v725h-136zM1366 1268q0 60 41.5 100.5 t103.5 40.5t104 -40.5t42 -100.5t-42.5 -102t-103.5 -42t-103 42t-42 102z" />
<glyph unicode="&#xfb04;" horiz-adv-x="1769" d="M57 725v193h136v249q0 363 327 369h180v-215h-182q-52 0 -72.5 -35.5t-23.5 -103.5v-264h405v249q0 363 338 369h463v-1536h-235v1321h-230q-54 0 -75 -35.5t-23 -101.5v-266h168v-193h-168v-725h-238v725h-405v-725h-229v725h-136z" />
<glyph horiz-adv-x="0" />
<glyph horiz-adv-x="682" />
<glyph unicode=" "  horiz-adv-x="675" />
<glyph unicode="&#x09;" horiz-adv-x="675" />
<glyph unicode="&#xa0;" horiz-adv-x="675" />
<glyph unicode="!" horiz-adv-x="653" d="M172 125q0 64 46 109t110 45q66 0 111.5 -44.5t45.5 -109.5q0 -64 -45.5 -108t-111.5 -44q-64 0 -110 44t-46 108zM215 756v678h215v-678l-12 -338h-187z" />
<glyph unicode="&#x22;" horiz-adv-x="827" d="M141 918v516h203v-516h-203zM481 918v516h205v-516h-205z" />
<glyph unicode="#" horiz-adv-x="1345" d="M41 344v215h258l35 201h-195v215h232l61 356h215l-61 -356h272l62 356h215l-62 -356h223v-215h-260l-32 -201h194v-215h-231l-60 -344h-215l58 344h-271l-59 -344h-215l57 344h-221zM516 559h270l35 201h-270z" />
<glyph unicode="$" horiz-adv-x="995" d="M61 135l129 176q71 -71 110.5 -93t113.5 -23v301q-179 33 -254.5 115.5t-75.5 236.5q0 162 81.5 253t248.5 103v230h161v-226q123 -3 283 -135l-125 -186q-2 2 -20 22.5t-22 24t-20.5 17.5t-27.5 18t-29.5 9.5t-38.5 6.5v-270q189 -34 279 -122t90 -241q0 -168 -95 -264 t-274 -106v-238h-161v238q-99 0 -183 32.5t-170 120.5zM326 858q0 -50 20.5 -78t67.5 -43v248q-42 -6 -65 -39t-23 -88zM575 201q105 22 105 133q0 56 -25 87t-80 44v-264z" />
<glyph unicode="%" horiz-adv-x="1773" d="M47 1004q0 147 111.5 252.5t267.5 105.5q160 0 269.5 -104.5t109.5 -258.5q0 -148 -112.5 -255t-266.5 -107q-155 0 -267 108t-112 259zM281 1004q0 -59 42.5 -100.5t102.5 -41.5t102.5 41t42.5 98t-42.5 97.5t-102.5 40.5t-102.5 -39.5t-42.5 -95.5zM416 -27l778 1389 h176l-776 -1389h-178zM969 336q0 151 112 258.5t267 107.5q159 0 267.5 -107t108.5 -265q0 -145 -111.5 -251t-264.5 -106q-155 0 -267 107t-112 256zM1202 334q0 -58 43 -98.5t103 -40.5q59 0 101 40t42 97q0 59 -41.5 101t-101.5 42t-103 -41.5t-43 -99.5z" />
<glyph unicode="&#x26;" horiz-adv-x="1329" d="M86 408q0 119 68 200t186 109q-109 27 -166 97.5t-57 172.5q0 178 126 279.5t339 101.5q68 -2 140 -28t130 -74l-119 -191q-41 53 -135 60q-96 0 -145.5 -43.5t-49.5 -122.5q0 -67 49.5 -103.5t139.5 -36.5h92v-235h-86q-107 0 -166 -49.5t-59 -136.5q0 -89 65.5 -136 t190.5 -47q212 0 289 13v499h-121v187h121v211h239v-211h123v-187h-123v-731h-239q-50 -15 -150 -22t-143 -7q-259 0 -399 111t-140 320z" />
<glyph unicode="'" horiz-adv-x="522" d="M78 1087l203 373l174 -94l-252 -354z" />
<glyph unicode="(" horiz-adv-x="581" d="M86 580q0 420 246 854h192q-180 -414 -180 -854q0 -436 182 -826h-192q-248 408 -248 826z" />
<glyph unicode=")" horiz-adv-x="583" d="M55 -246q185 397 185 824q0 450 -185 856h193q121 -208 184.5 -429t63.5 -427q0 -418 -248 -824h-193z" />
<glyph unicode="*" horiz-adv-x="837" d="M84 1044l221 111l-221 107l78 135l184 -133v227h143v-227l187 133l80 -135l-224 -107l224 -111l-80 -131l-187 134v-230h-143v230l-184 -134z" />
<glyph unicode="+" horiz-adv-x="985" d="M68 465v225h311v324h223v-324h316v-225h-316v-324h-223v324h-311z" />
<glyph unicode="," horiz-adv-x="520" d="M78 -227l203 372l172 -96l-252 -352z" />
<glyph unicode="-" horiz-adv-x="835" d="M160 369v176h516v-176h-516z" />
<glyph unicode="." horiz-adv-x="505" d="M117 98q0 53 38 91t93 38q54 0 94.5 -38.5t40.5 -90.5q0 -55 -40 -92t-95 -37q-56 0 -93.5 37t-37.5 92z" />
<glyph unicode="/" horiz-adv-x="714" d="M29 -168l467 1704h217l-465 -1704h-219z" />
<glyph unicode="0" horiz-adv-x="1269" d="M162 711q0 364 120 554.5t351 190.5q226 0 349.5 -191t123.5 -554q0 -362 -122 -549t-351 -187t-350 185t-121 551zM420 711q0 -510 213 -510q211 0 211 510q0 508 -211 508q-213 0 -213 -508z" />
<glyph unicode="1" horiz-adv-x="714" d="M88 1198l78 236h334v-1434h-226v1198h-186z" />
<glyph unicode="2" horiz-adv-x="1132" d="M119 0v203l469 532q75 92 105 152.5t30 124.5q0 87 -56.5 144.5t-144.5 57.5q-72 0 -121.5 -45t-54.5 -104h-227q1 105 57.5 194.5t147.5 142t194 56.5q209 0 338 -118t129 -316q0 -194 -149 -395l-433 -426h574v-203h-858z" />
<glyph unicode="3" horiz-adv-x="1169" d="M86 360h240q19 -76 74.5 -117.5t140.5 -41.5q95 0 151 57t56 160q0 105 -63 167t-175 62v211q97 0 155 48t58 134q0 85 -48 132t-134 47q-78 0 -128 -39.5t-63 -114.5h-239q15 183 128.5 287t301.5 104q202 0 322 -105t120 -294q0 -113 -59 -191.5t-166 -109.5 q119 -28 186 -116.5t70 -221.5q0 -215 -122.5 -329t-350.5 -114q-199 0 -315.5 96t-139.5 289z" />
<glyph unicode="4" horiz-adv-x="1114" d="M27 293v51l751 1114h49v-952h185v-213h-185v-293h-225v293h-575zM379 506h223v350z" />
<glyph unicode="5" horiz-adv-x="1128" d="M86 180l135 168q50 -61 110.5 -94.5t121.5 -36.5q120 0 190 69.5t70 192.5q0 122 -70.5 193t-189.5 71q-143 0 -301 -55l194 746h619l-43 -224h-441l-69 -254q20 14 62 23t44 10q222 0 338.5 -133t116.5 -377q0 -242 -135 -373t-381 -131q-90 0 -188.5 51.5t-182.5 153.5 z" />
<glyph unicode="6" horiz-adv-x="1239" d="M117 471q0 87 25 170.5t71 146.5l526 670l187 -117l-295 -374q203 0 345 -143t142 -351q0 -137 -65 -251t-177 -179.5t-245 -65.5q-141 0 -259 65t-186.5 178.5t-68.5 250.5zM393 471q0 -107 67 -184.5t161 -77.5q95 0 163 77.5t68 184.5q0 109 -68 188.5t-163 79.5 q-93 0 -160.5 -79.5t-67.5 -188.5z" />
<glyph unicode="7" horiz-adv-x="1034" d="M84 1212v222h870l-477 -1434h-241l415 1212h-567z" />
<glyph unicode="8" horiz-adv-x="1245" d="M152 418q0 130 63.5 220.5t181.5 117.5q-101 29 -152.5 109t-51.5 198q0 185 112.5 289t317.5 104q200 0 315 -102t115 -291q0 -117 -51 -197t-156 -110q116 -27 178.5 -115t65.5 -223q0 -215 -120.5 -329t-346.5 -114q-227 0 -349 111.5t-122 331.5zM418 418 q0 -103 54 -160t151 -57q95 0 149.5 57t54.5 160q0 102 -52.5 159.5t-151.5 57.5q-98 0 -151.5 -56t-53.5 -161zM453 1044q0 -83 44 -128.5t126 -45.5q80 0 125 46t45 128q0 85 -43 130t-127 45q-82 0 -126 -44.5t-44 -130.5z" />
<glyph unicode="9" horiz-adv-x="1234" d="M115 954q0 211 142.5 356.5t344.5 145.5q141 0 259 -65.5t186.5 -180.5t68.5 -254q0 -88 -25 -171.5t-71 -143.5l-533 -668l-184 111l299 377q-132 0 -244 65t-177.5 179t-65.5 249zM383 956q0 -109 67 -188.5t162 -79.5t162.5 79.5t67.5 188.5q0 108 -67.5 185.5 t-162.5 77.5t-162 -77.5t-67 -185.5z" />
<glyph unicode=":" horiz-adv-x="514" d="M104 111q0 59 42.5 102t103.5 43q60 0 104.5 -43.5t44.5 -101.5q0 -59 -44 -100.5t-105 -41.5q-62 0 -104 41t-42 101zM104 713q0 60 42.5 102.5t103.5 42.5q60 0 104.5 -42.5t44.5 -102.5q0 -59 -44 -99.5t-105 -40.5q-62 0 -104 40t-42 100z" />
<glyph unicode=";" horiz-adv-x="501" d="M68 -217l192 430l164 -111l-240 -405zM117 713q0 60 42 102.5t103 42.5q60 0 105 -42.5t45 -102.5q0 -61 -44.5 -102.5t-105.5 -41.5q-62 0 -103.5 41.5t-41.5 102.5z" />
<glyph unicode="&#x3c;" horiz-adv-x="1304" d="M53 428v190l1153 355v-213l-835 -238l835 -235v-213z" />
<glyph unicode="=" horiz-adv-x="1193" d="M141 287v194h912v-194h-912zM141 569v191h912v-191h-912z" />
<glyph unicode="&#x3e;" horiz-adv-x="1304" d="M98 74v213l836 235l-836 238v213l1155 -355v-190z" />
<glyph unicode="?" horiz-adv-x="937" d="M109 1044q1 84 21.5 154t55 117t80.5 79.5t95 47t100 14.5q156 0 252 -85t102 -226q0 -36 -13.5 -75.5t-30.5 -69t-47 -67t-46.5 -55.5t-48 -49.5l-33.5 -33.5q-40 -40 -60.5 -62t-41.5 -52.5t-21 -49.5q-2 -20 4 -35t15 -14h10q20 0 32.5 15t16.5 54h186 q-3 -134 -70.5 -222.5t-179.5 -88.5h-10q-104 2 -190 81t-86 193q0 55 17 106.5t50 98t65 80.5t79 78q127 103 129 156q0 67 -92 67q-46 0 -77.5 -41.5t-35.5 -114.5h-227zM326 125q0 63 46 108.5t109 45.5q66 0 112 -45.5t46 -108.5q0 -64 -46 -108t-112 -44 q-64 0 -109.5 44t-45.5 108z" />
<glyph unicode="@" horiz-adv-x="1671" d="M68 461q0 166 64 311t172.5 245.5t254 158t305.5 57.5q148 0 284.5 -52.5t238 -142t162.5 -216.5t61 -267q0 -228 -148 -359t-407 -137v117q-90 -127 -244 -127q-158 0 -259 113t-101 295q0 175 100 290t260 115q158 0 244 -127v99h164v-594q91 19 140.5 100.5 t51.5 212.5q0 111 -46.5 206t-123.5 158t-174.5 99.5t-200.5 38.5q-129 0 -243 -49t-192.5 -131t-123.5 -190t-45 -224q0 -165 80.5 -299.5t214.5 -208.5t293 -74q208 0 405 154l113 -133q-111 -96 -244 -147t-274 -54q-173 0 -321.5 62.5t-248.5 168t-156 243.5t-56 288z M664 457q0 -100 47.5 -158.5t132.5 -58.5q79 0 128.5 58.5t49.5 158.5q0 95 -49 151t-131 56q-78 0 -126.5 -54t-51.5 -153z" />
<glyph unicode="A" horiz-adv-x="1245" d="M6 0l612 1456l619 -1456h-233l-144 336h-471l-137 -336h-246zM473 555h295l-150 356z" />
<glyph unicode="B" horiz-adv-x="1183" d="M141 0v1434h461q207 0 322.5 -98.5t115.5 -278.5q0 -127 -47.5 -198t-154.5 -89q124 -31 194 -122.5t70 -229.5q0 -202 -125 -310t-356 -108h-480zM375 225h235q110 0 164.5 52t54.5 161q0 211 -219 211h-235v-424zM375 874h215q205 0 205 166q0 77 -52 119t-153 45h-215 v-330z" />
<glyph unicode="C" horiz-adv-x="1212" d="M84 709q0 344 177.5 545.5t481.5 201.5q230 0 435 -156l-113 -176q-146 90 -311 90q-187 0 -290.5 -130.5t-103.5 -374.5t100 -373t294 -129q150 0 295 82l129 -162q-179 -154 -435 -154q-305 0 -482 195t-177 541z" />
<glyph unicode="D" horiz-adv-x="1361" d="M141 0v1440h383q386 0 568 -172.5t182 -548.5q0 -372 -181 -545.5t-569 -173.5h-383zM379 225h170q232 0 340 119.5t108 374.5q0 251 -108.5 371t-339.5 120h-170v-985z" />
<glyph unicode="E" horiz-adv-x="1093" d="M141 0v1434h854v-226h-616v-262h616v-223h-616v-504h633v-219h-871z" />
<glyph unicode="F" horiz-adv-x="987" d="M141 0v1434h777v-226h-541v-262h541v-221h-541v-725h-236z" />
<glyph unicode="G" horiz-adv-x="1353" d="M84 715q0 351 179.5 546t494.5 195q262 0 461 -149l-97 -191q-170 98 -352 98q-203 0 -307.5 -124.5t-104.5 -374.5q0 -267 104 -403t308 -136q161 0 246 74v313h-268v211h516v-598q-207 -201 -506 -201q-318 0 -496 193t-178 547z" />
<glyph unicode="H" horiz-adv-x="1308" d="M141 0v1434h238v-557h549v557h239v-1434h-239v653h-549v-653h-238z" />
<glyph unicode="I" horiz-adv-x="505" d="M141 0v1434h224v-1434h-224z" />
<glyph unicode="J" horiz-adv-x="645" d="M39 -25v232h80q85 0 119 60t34 214v953h240v-953q0 -261 -89.5 -383.5t-287.5 -122.5h-96z" />
<glyph unicode="K" horiz-adv-x="1214" d="M141 0v1434h228v-568l518 568h280l-618 -666l661 -768h-284l-557 649v-649h-228z" />
<glyph unicode="L" horiz-adv-x="1007" d="M141 0v1434h238v-1215h604v-219h-842z" />
<glyph unicode="M" horiz-adv-x="1695" d="M20 0l455 1434h14l359 -934l356 934h15l454 -1434h-246l-251 811l-328 -811l-324 807l-260 -807h-244z" />
<glyph unicode="N" horiz-adv-x="1288" d="M141 0v1434h19l774 -865v865h227v-1434h-20l-770 829v-829h-230z" />
<glyph unicode="O" horiz-adv-x="1595" d="M80 711q0 223 89.5 392.5t252.5 261t377 91.5q158 0 290.5 -53t226 -149t145.5 -235.5t52 -307.5q0 -337 -193 -536.5t-521 -199.5t-523.5 199.5t-195.5 536.5zM346 711q0 -230 127 -368t326 -138q195 0 321.5 137t126.5 369q0 228 -125.5 365.5t-322.5 137.5 q-196 0 -324.5 -135.5t-128.5 -367.5z" />
<glyph unicode="P" horiz-adv-x="1075" d="M141 0v1434h394q213 -3 340 -118.5t131 -316.5v-4q0 -193 -128.5 -311.5t-342.5 -118.5h-160v-565h-234zM375 795h160q100 0 165.5 51.5t65.5 152.5q0 98 -63.5 149t-167.5 54h-160v-407z" />
<glyph unicode="Q" horiz-adv-x="1601" d="M80 711q0 338 196.5 541.5t520.5 203.5q157 0 289 -53t225.5 -149t145.5 -235.5t52 -307.5q0 -290 -153 -473l176 -238h-254l-80 94q-159 -119 -401 -119q-328 0 -522.5 199t-194.5 537zM346 711q0 -230 126.5 -368t324.5 -138q145 0 260 59l-209 281h246l104 -139 q49 123 49 305q0 228 -125.5 365.5t-324.5 137.5q-95 0 -177 -34.5t-143 -97.5t-96 -159t-35 -212z" />
<glyph unicode="R" horiz-adv-x="1093" d="M141 0v1434h400q216 0 337 -108t121 -322q-5 -89 -28 -156.5t-61.5 -112.5t-84.5 -72.5t-104 -44.5l321 -618h-256l-288 567h-119v-567h-238zM379 799h162q98 0 156.5 53.5t58.5 151.5q0 94 -57.5 144.5t-157.5 53.5h-162v-403z" />
<glyph unicode="S" horiz-adv-x="1103" d="M80 170l153 180q134 -129 287 -135q122 0 194 45.5t72 136.5q0 42 -16 75t-38 52.5t-60.5 36t-68 25t-77.5 19.5q-6 1 -10 2t-9.5 2.5t-10.5 2.5q-205 44 -298.5 144t-93.5 278q1 121 65 217t173 149.5t242 55.5q130 -1 223 -55.5t184 -163.5l-153 -164 q-64 76 -112.5 108.5t-121.5 32.5q-60 0 -105.5 -12.5t-71.5 -31t-42.5 -44t-21.5 -48t-5 -46.5q0 -36 18.5 -65.5t43 -47.5t67 -34.5t73 -24.5t77.5 -18q202 -44 300 -149t99 -281q-2 -189 -145.5 -313t-366.5 -124h-4q-102 0 -225 53t-215 142z" />
<glyph unicode="T" horiz-adv-x="1161" d="M35 1208v226h1091v-226h-426v-1208h-237v1208h-428z" />
<glyph unicode="U" horiz-adv-x="1292" d="M129 551v883h254v-859q0 -194 61.5 -280t204.5 -86q139 0 202.5 86.5t63.5 279.5v859h248v-883q0 -288 -129.5 -432t-384.5 -144q-520 0 -520 576z" />
<glyph unicode="V" horiz-adv-x="1265" d="M18 1434h246l375 -914l365 914h243l-604 -1454h-20z" />
<glyph unicode="W" horiz-adv-x="1714" d="M31 1434h243l258 -809l326 809l332 -832l248 832h245l-452 -1454q-1 -2 -3 -2.5t-4 0l-6 1.5t-6 1l-354 940l-356 -940h-19z" />
<glyph unicode="X" horiz-adv-x="1198" d="M14 0l441 764l-379 670h246l286 -494l287 494h252l-399 -691l423 -743h-245l-330 567l-330 -567h-252z" />
<glyph unicode="Y" d="M10 1434h252l322 -547l319 547h246l-447 -758v-676h-249v676z" />
<glyph unicode="Z" horiz-adv-x="1181" d="M35 0l723 1221h-695v213h1059l-723 -1225h731v-209h-1095z" />
<glyph unicode="[" horiz-adv-x="610" d="M141 -256v1690h402v-205h-181v-1278h181v-207h-402z" />
<glyph unicode="\" horiz-adv-x="696" d="M29 1223h217l422 -1377h-219z" />
<glyph unicode="]" horiz-adv-x="608" d="M68 -49h182v1278h-182v205h399v-1690h-399v207z" />
<glyph unicode="^" horiz-adv-x="1243" d="M43 766l473 457h209l475 -457h-239l-340 270l-342 -270h-236z" />
<glyph unicode="_" horiz-adv-x="942" d="M-10 -276h960v-117h-960v117z" />
<glyph unicode="`" horiz-adv-x="552" d="M72 1360l172 98l233 -295l-129 -88z" />
<glyph unicode="a" horiz-adv-x="1146" d="M96 457q0 215 120 348t312 133q176 0 252 -143v123h226v-918h-226v117q-76 -137 -252 -137q-192 0 -312 131t-120 346zM369 457q0 -121 50.5 -190.5t141.5 -69.5q103 0 161 69t58 191q0 120 -58 188t-161 68q-89 0 -140.5 -67t-51.5 -189z" />
<glyph unicode="b" horiz-adv-x="1148" d="M141 0v1536h221v-731q41 75 101 104t155 29q200 0 315.5 -115.5t115.5 -339.5q0 -225 -118.5 -365.5t-312.5 -140.5q-88 0 -149 35t-107 115v-127h-221zM362 483q0 -127 59 -206.5t165 -79.5q88 0 140 79t52 207q0 121 -49.5 175.5t-142.5 54.5q-108 0 -166 -53t-58 -177 z" />
<glyph unicode="c" horiz-adv-x="966" d="M86 455q0 201 142 342t341 141q213 -12 338 -145l-145 -152q-88 88 -189 88q-97 0 -167 -82t-70 -192q0 -111 69.5 -190t167.5 -79q107 0 189 82l145 -164q-86 -67 -165 -97t-173 -30q-130 0 -241 63t-176.5 173.5t-65.5 241.5z" />
<glyph unicode="d" horiz-adv-x="1148" d="M98 483q1 105 36 192t94 144t136 88t162 31h4q89 0 151.5 -33.5t100.5 -111.5v743h226v-1536h-226v127q-78 -150 -252 -150q-195 0 -313 133t-119 373zM371 483q0 -130 46 -208t140 -78h6q103 0 161 71.5t58 196.5q0 124 -57 186t-162 62q-91 0 -141.5 -57.5 t-50.5 -172.5z" />
<glyph unicode="e" horiz-adv-x="1103" d="M86 455q0 203 138 343t341 140h10q197 0 319 -117.5t122 -316.5v-84h-694q0 -96 75.5 -168t180.5 -72h8q156 0 264 121l145 -121q-65 -96 -176.5 -148.5t-243.5 -54.5q-134 0 -246.5 63t-177.5 173t-65 242zM342 596h442q-14 69 -73 101t-144 32q-74 0 -143 -44t-82 -89z " />
<glyph unicode="f" horiz-adv-x="665" d="M74 725v193h135v253q0 173 80.5 269t247.5 96h180v-215h-182q-52 0 -73 -34t-24 -101v-268h160v-193h-160v-725h-229v725h-135z" />
<glyph unicode="g" horiz-adv-x="1150" d="M96 453q0 217 117.5 351t310.5 134q167 0 244 -152v132h242v-912q0 -231 -118.5 -347.5t-348.5 -119.5q-113 0 -228.5 47.5t-177.5 143.5l172 143q35 -49 90.5 -77.5t122.5 -28.5q246 0 246 223v121q-78 -134 -244 -134q-189 0 -308.5 132.5t-119.5 343.5zM369 453 q0 -124 48 -190t140 -66q101 0 156 65t55 187t-55.5 193t-155.5 71q-89 0 -138.5 -68.5t-49.5 -191.5z" />
<glyph unicode="h" horiz-adv-x="1120" d="M141 0v1536h230v-735q45 76 105.5 106.5t148.5 30.5q182 0 274 -98t92 -305v-535h-252v528q0 95 -36 139t-111 46q-104 0 -161 -55.5t-60 -155.5v-502h-230z" />
<glyph unicode="i" horiz-adv-x="509" d="M111 1262q0 60 41.5 100.5t103.5 40.5t103.5 -40.5t41.5 -100.5t-42 -101t-103 -41t-103 41t-42 101zM141 0v918h228v-918h-228z" />
<glyph unicode="j" horiz-adv-x="505" d="M115 1262q0 60 41.5 100.5t103.5 40.5t104 -40.5t42 -100.5q0 -61 -42 -102.5t-104 -41.5t-103.5 41.5t-41.5 102.5zM141 -461v1379h230v-1379h-230z" />
<glyph unicode="k" horiz-adv-x="1069" d="M141 0v1536h224v-952l389 334h268l-477 -418l497 -500h-272l-405 410v-410h-224z" />
<glyph unicode="l" horiz-adv-x="512" d="M141 0v1536h230v-1536h-230z" />
<glyph unicode="m" horiz-adv-x="1728" d="M141 0v913h236v-125q50 78 111 114t149 36q212 0 285 -172q106 172 321 172q171 0 265 -104t94 -297v-537h-261v532q0 181 -139 181q-96 0 -151 -56.5t-58 -152.5v-504h-256v532q0 181 -143 181q-98 0 -156 -57.5t-61 -151.5v-504h-236z" />
<glyph unicode="n" horiz-adv-x="1120" d="M141 0v913h230v-125q94 150 254 150q179 0 272.5 -101t93.5 -300v-537h-252v532q0 178 -147 181q-103 0 -160.5 -56t-60.5 -153v-504h-230z" />
<glyph unicode="o" d="M86 455q0 133 66.5 244t180 175t247.5 64q133 0 245 -63.5t177 -174t65 -243.5t-65 -243.5t-177 -173.5t-245 -63q-134 0 -247.5 63t-180 173t-66.5 242zM342 455q0 -111 70.5 -190t169.5 -79q98 0 167.5 79t69.5 190q0 110 -70 192t-167 82q-99 0 -169.5 -82t-70.5 -192 z" />
<glyph unicode="p" horiz-adv-x="1148" d="M141 -461v1379h226v-134q43 79 103 116.5t148 37.5q197 0 314 -127t117 -352q0 -221 -118 -353.5t-313 -132.5q-92 0 -150 27t-101 104v-565h-226zM367 459q0 -123 56.5 -192.5t162.5 -69.5q90 0 141 68.5t51 193.5q0 124 -50.5 189t-141.5 65q-102 0 -160.5 -63.5 t-58.5 -190.5z" />
<glyph unicode="q" horiz-adv-x="1148" d="M98 444q0 225 119 359.5t313 134.5q176 0 256 -154v134h222v-1379h-222v584q-81 -150 -256 -150q-88 0 -166 31.5t-137.5 90t-94 148.5t-34.5 201zM371 444q0 -123 49.5 -185t142.5 -62q106 0 164.5 65t58.5 189q0 125 -59 193.5t-164 68.5q-89 0 -140.5 -70t-51.5 -199z " />
<glyph unicode="r" horiz-adv-x="813" d="M141 0v918h224v-130q78 150 260 150q27 0 74.5 -16.5t82.5 -47.5l-75 -194q-68 33 -127 33q-104 0 -158 -62.5t-57 -177.5v-473h-224z" />
<glyph unicode="s" horiz-adv-x="923" d="M94 164l174 139q77 -117 183 -117q66 0 111.5 20.5t45.5 57.5v2q0 76 -217 123q-113 25 -189.5 90.5t-76.5 175.5q0 121 95 202t255 81h10q99 0 183.5 -53.5t140.5 -143.5l-156 -112q-33 45 -81 84t-99 39q-123 -3 -123 -95q2 -64 228 -114q112 -28 181 -98t70 -181 q-3 -89 -58 -156.5t-139 -101t-181 -33.5q-228 0 -357 191z" />
<glyph unicode="t" horiz-adv-x="612" d="M80 727v191h117v362h221v-362h114v-191h-114v-727h-221v727h-117z" />
<glyph unicode="u" horiz-adv-x="1110" d="M129 377v541h246v-535q0 -86 51.5 -136t132.5 -50q90 0 130 51t42 162v508h250v-541q0 -185 -112.5 -292.5t-299.5 -107.5h-10q-186 0 -308 104.5t-122 295.5z" />
<glyph unicode="v" horiz-adv-x="1040" d="M31 918h233l256 -527l256 527h236l-477 -938h-29z" />
<glyph unicode="w" horiz-adv-x="1490" d="M33 918h237l234 -486l237 486l246 -486l234 486h239l-459 -938h-26l-234 509l-225 -509h-24z" />
<glyph unicode="x" horiz-adv-x="1064" d="M37 0l354 477l-321 441h256l219 -283l207 283h254l-332 -451l348 -467h-256l-242 317l-231 -317h-256z" />
<glyph unicode="y" horiz-adv-x="1177" d="M125 459v459h258v-459q0 -126 51 -194t148 -68q100 0 154.5 68.5t54.5 193.5v459h245v-895q0 -241 -115 -362.5t-352 -121.5q-5 0 -15 -1t-15 -1q-110 0 -214 50.5t-165 142.5l174 147q34 -50 89.5 -78t123.5 -28q244 0 244 225v121q-67 -140 -242 -140 q-189 0 -306.5 130.5t-117.5 351.5z" />
<glyph unicode="z" horiz-adv-x="993" d="M86 0v182l551 553h-524v183h786v-189l-545 -551h545v-178h-813z" />
<glyph unicode="{" horiz-adv-x="827" d="M35 436v226h94q80 0 110.5 37.5t30.5 136.5v202q0 113 16 180t62 110.5t120.5 59t199.5 15.5h90v-221h-96q-75 0 -98.5 -27t-26.5 -119v-211q0 -134 -35 -194t-125 -82q91 -25 125.5 -84.5t34.5 -190.5v-213q0 -82 24 -108.5t101 -26.5h96v-223h-90q-123 0 -196 14.5 t-120.5 55.5t-64.5 108t-17 178v205q0 95 -30 133.5t-111 38.5h-94z" />
<glyph unicode="|" horiz-adv-x="456" d="M141 -307v1741h174v-1741h-174z" />
<glyph unicode="}" horiz-adv-x="825" d="M70 -74h98q75 0 98 25.5t23 109.5v213q0 130 35.5 190t124.5 85q-88 22 -124 82t-36 194v211q0 90 -23 118t-98 28h-98v221h92q123 0 196 -15t119.5 -58t63 -110.5t16.5 -181.5v-202q0 -99 30.5 -136.5t110.5 -37.5h90v-226h-90q-80 0 -110.5 -36t-30.5 -136v-205 q0 -74 -7 -126t-25 -93t-46 -66t-74 -41.5t-103.5 -23t-139.5 -6.5h-92v223z" />
<glyph unicode="~" horiz-adv-x="1378" d="M109 381v168q101 57 182.5 83.5t175.5 26.5q121 0 252 -45q97 -32 196 -32q167 0 342 88v-170q-99 -59 -181.5 -84t-178.5 -27q-118 0 -254 43q-99 37 -197 37q-154 0 -337 -88z" />
<glyph unicode="&#xa1;" horiz-adv-x="653" d="M170 1303q0 64 46 108.5t110 44.5q66 0 111.5 -44.5t45.5 -108.5t-45.5 -108t-111.5 -44q-64 0 -110 44t-46 108zM217 0v653l16 355h183l14 -355v-653h-213z" />
<glyph unicode="&#xa2;" horiz-adv-x="950" d="M68 455q0 220 108 348t316 147v224h161v-224q124 -6 221 -63v-215q-63 38 -113.5 56.5t-107.5 19.5v-584q104 3 221 76v-215q-99 -51 -221 -60v-219h-161v223q-202 12 -313 139.5t-111 346.5zM342 455q0 -124 38 -199t112 -88v575q-70 -10 -110 -86.5t-40 -201.5z" />
<glyph unicode="&#xa3;" horiz-adv-x="1050" d="M63 0v219h185v309h-154v203h154v156q0 249 97 365t312 116q116 -5 212 -62.5t149 -160.5l-148 -148q-34 37 -49 52t-40.5 34t-50 25.5t-58.5 7.5q-95 0 -132.5 -52t-37.5 -196v-137h309v-203h-309v-309h448v-219h-887z" />
<glyph unicode="&#xa4;" horiz-adv-x="1163" d="M72 219l166 172q-60 99 -60 184q0 101 62 183l-166 172l151 147l172 -166q80 60 185 60q99 0 184 -58l174 168l152 -149l-170 -170q59 -82 59 -187q0 -102 -61 -182l170 -172l-152 -149l-174 166q-88 -60 -182 -60q-103 0 -189 58l-172 -166zM422 578q0 -68 46.5 -116 t113.5 -48q63 0 108 48t45 116q0 62 -44.5 108.5t-108.5 46.5t-112 -45t-48 -110z" />
<glyph unicode="&#xa5;" horiz-adv-x="1122" d="M45 1346h242l274 -576l277 576h241l-260 -504h203v-185h-279l-51 -94h330v-182h-334v-381h-256v381h-334v180h334l-51 96h-283v185h207z" />
<glyph unicode="&#xa6;" horiz-adv-x="454" d="M141 -285v662h172v-662h-172zM141 502v672h172v-672h-172z" />
<glyph unicode="&#xa7;" horiz-adv-x="913" d="M72 637q0 171 141 252q-86 63 -92 182q0 130 95.5 213.5t252.5 83.5q153 0 279 -76v-213q-154 54 -265 54q-45 0 -73.5 -17t-28.5 -51q0 -53 135 -121q53 -38 74 -53t60.5 -44t53 -40.5t40.5 -34t35 -33.5t23.5 -30.5t19.5 -33t10.5 -33t8 -38t1.5 -41.5 q0 -150 -142 -241q47 -43 68.5 -84.5t24.5 -98.5q0 -140 -97.5 -225.5t-257.5 -85.5q-127 0 -284 74v213q136 -45 266 -52q110 0 110 70q0 31 -34.5 64t-110.5 75l-20 15q-179 114 -236 182t-57 168zM315 672q0 -36 14 -61.5t65.5 -64.5t160.5 -102q43 46 43 95 q0 34 -15.5 60.5t-68 67.5t-154.5 99q-42 -42 -45 -94z" />
<glyph unicode="&#xa8;" horiz-adv-x="919" d="M113 1214q0 61 42 104.5t103 43.5q62 0 105 -43.5t43 -104.5t-43 -104t-105 -43q-61 0 -103 43t-42 104zM508 1214q0 61 42 104.5t103 43.5t103.5 -43.5t42.5 -104.5q0 -60 -42.5 -103.5t-103.5 -43.5t-103 43t-42 104z" />
<glyph unicode="&#xa9;" horiz-adv-x="1507" d="M74 666q0 143 57 270t150.5 213.5t216 137t252.5 50.5q193 0 351 -94.5t244.5 -247.5t86.5 -329q0 -182 -92 -335.5t-249 -242t-341 -88.5q-140 0 -266 54t-215.5 144.5t-142 213t-52.5 254.5zM240 666q0 -139 71.5 -256t188.5 -182.5t250 -65.5q109 0 205.5 41 t164 109.5t107 161t39.5 192.5q0 115 -44 211t-117.5 158.5t-165 98t-189.5 37.5q-136 0 -253.5 -68t-187 -185t-69.5 -252zM330 666q0 195 120 308t324 113q139 0 262 -63v-166q-101 44 -252 51q-109 0 -170 -62.5t-61 -180.5q0 -116 63.5 -180t176.5 -64q131 0 243 47 v-160q-116 -64 -262 -67q-201 0 -322.5 113.5t-121.5 310.5z" />
<glyph unicode="&#xaa;" horiz-adv-x="888" d="M98 848q0 131 89 197.5t264 66.5l102 -10q0 59 -137 59q-126 0 -254 -45v180q137 72 266 72q332 0 332 -342v-405h-207v75q-59 -108 -178 -108q-125 0 -199.5 68.5t-77.5 191.5zM150 399v160h614v-160h-614zM330 858q0 -26 22 -42.5t64 -16.5q61 0 99 37t38 96l-59 4 q-164 0 -164 -78z" />
<glyph unicode="&#xab;" horiz-adv-x="993" d="M55 436v105l467 325v-209l-219 -168l219 -170v-204zM403 436v105l469 325v-209l-221 -168l221 -170v-204z" />
<glyph unicode="&#xac;" horiz-adv-x="1368" d="M78 514v191h1149v-472h-226v281h-923z" />
<glyph unicode="&#xad;" horiz-adv-x="835" d="M160 369v176h516v-176h-516z" />
<glyph unicode="&#xae;" horiz-adv-x="1148" d="M80 954q0 143 70 260t182.5 180.5t240.5 63.5q103 0 195.5 -42t157.5 -111.5t103 -161.5t38 -189q0 -137 -67 -252t-180.5 -181t-246.5 -66q-136 0 -250 68t-178.5 182.5t-64.5 248.5zM219 954q0 -152 106.5 -261t247.5 -109q151 0 252.5 105t104.5 265q0 109 -53 195.5 t-133.5 131.5t-170.5 48q-94 0 -176.5 -52.5t-130 -139t-47.5 -183.5zM383 692v565h192q109 -3 161 -40.5t52 -118.5q0 -116 -124 -140q24 -5 51 -40.5t43.5 -71t39 -89.5t27.5 -65h-155l-52 144q-25 47 -40 60.5t-41 16.5h-13v-221h-141zM524 1038h49q40 0 50 10.5t10 43.5 t-9.5 43.5t-50.5 11.5h-49v-109z" />
<glyph unicode="&#xaf;" horiz-adv-x="833" d="M141 1126v123h551v-123h-551z" />
<glyph unicode="&#xb0;" horiz-adv-x="702" d="M96 1120q0 101 72.5 173.5t177.5 72.5q62 0 111 -22t78 -59t44 -78.5t17 -86.5q0 -97 -72.5 -169t-177.5 -72q-108 0 -179 69.5t-71 171.5zM254 1120q0 -36 27 -62t65 -26q36 0 63 25.5t27 62.5q0 36 -26.5 64t-63.5 28t-64.5 -26.5t-27.5 -65.5z" />
<glyph unicode="&#xb1;" horiz-adv-x="1013" d="M82 0v221h850v-221h-850zM82 606v225h311v324h223v-324h316v-225h-316v-323h-223v323h-311z" />
<glyph unicode="&#xb2;" horiz-adv-x="835" d="M90 645v150l334 282q43 35 59.5 57t16.5 46q0 25 -30.5 41t-82.5 16q-41 0 -71 -18t-33 -41h-189q0 108 86.5 185.5t204.5 82.5q156 0 252 -73t96 -195q0 -105 -115 -226l-282 -157h385v-150h-631z" />
<glyph unicode="&#xb3;" horiz-adv-x="860" d="M68 893h204q10 -32 42 -50t77 -18q59 0 95 17.5t36 46.5q0 39 -34 60.5t-97 21.5v166q53 0 84 15.5t31 43.5q0 43 -115 43q-90 0 -102 -65h-199q8 126 88.5 199t212.5 73q159 0 253.5 -63.5t94.5 -176.5t-155 -149q82 -12 128.5 -56.5t47.5 -111.5q0 -124 -95.5 -190 t-273.5 -66q-287 0 -323 260z" />
<glyph unicode="&#xb4;" horiz-adv-x="575" d="M72 1137l254 317l188 -94l-303 -316z" />
<glyph unicode="&#xb5;" horiz-adv-x="1103" d="M141 -451v1369h232v-578q0 -170 182 -170q201 0 201 203v545h237v-945h-237v80q-34 -61 -77.5 -88.5t-111.5 -27.5q-71 0 -118 27t-76 89v-504h-232z" />
<glyph unicode="&#xb6;" horiz-adv-x="1036" d="M53 936q0 181 121.5 295.5t319.5 114.5h401v-1520h-197v1325h-67v-1325h-201v711q-177 17 -277 120.5t-100 278.5z" />
<glyph unicode="&#xb7;" horiz-adv-x="532" d="M104 588q0 67 45.5 114.5t110.5 47.5t110.5 -47.5t45.5 -114.5t-45.5 -114.5t-110.5 -47.5t-110.5 47.5t-45.5 114.5z" />
<glyph unicode="&#xb8;" horiz-adv-x="499" d="M82 -352l170 270h151l-139 -369z" />
<glyph unicode="&#xb9;" horiz-adv-x="520" d="M61 1253l62 181h256v-789h-189v608h-129z" />
<glyph unicode="&#xba;" horiz-adv-x="917" d="M98 975q0 180 95 286.5t264 106.5q165 0 261.5 -103t96.5 -290q0 -179 -96 -283t-262 -104q-164 0 -261.5 104t-97.5 283zM150 399v160h614v-160h-614zM336 975q0 -79 33 -128.5t88 -49.5q56 0 87 49.5t31 128.5q0 86 -31 136t-87 50q-55 0 -88 -49.5t-33 -136.5z" />
<glyph unicode="&#xbb;" horiz-adv-x="997" d="M121 115v204l225 170l-225 168v209l471 -325v-105zM471 115v204l221 170l-221 168v209l471 -325v-105z" />
<glyph unicode="&#xbc;" horiz-adv-x="1527" d="M27 1182l71 186h297v-823h-215v637h-153zM195 -23l757 1391h213l-759 -1391h-211zM719 154l627 694v-520h137v-174h-137v-156h-201v156h-426zM1024 328h121v145z" />
<glyph unicode="&#xbd;" horiz-adv-x="1591" d="M29 1182l71 186h297v-823h-217v637h-151zM195 -23l757 1391h211l-755 -1391h-213zM844 -2v160l354 303q46 37 64 59.5t18 46.5q0 28 -33 46t-88 18q-45 0 -76 -21t-34 -49h-201q0 117 93 201.5t216 89.5q166 0 267.5 -75.5t101.5 -203.5q0 -116 -125 -247l-299 -168h411 v-160h-669z" />
<glyph unicode="&#xbe;" horiz-adv-x="1826" d="M37 799h217q10 -35 44.5 -54.5t84.5 -19.5q65 0 104 19.5t39 52.5q0 40 -37.5 64t-105.5 24v176q58 0 91.5 16.5t33.5 48.5q0 45 -125 45q-98 0 -113 -69h-211q9 135 96 212t228 77q170 0 271.5 -67t101.5 -187q0 -61 -43.5 -102t-124.5 -58q87 -13 136.5 -61t51.5 -119 q0 -134 -102 -206.5t-291 -72.5q-310 0 -346 281zM508 -23l770 1375h213l-770 -1375h-213zM1018 152l631 686v-516h139v-170h-139v-154h-203v154h-428zM1317 322h129v147z" />
<glyph unicode="&#xbf;" horiz-adv-x="940" d="M125 283q0 27 7.5 56.5t18 53.5t29.5 52.5t33 47.5t38 45t35 37.5t33 33t25 24.5q40 40 60.5 62t41.5 53t21 51q2 18 -3.5 33t-14.5 14h-7q-22 0 -35.5 -15.5t-19.5 -58.5h-184q3 135 70 226.5t180 91.5h10q103 -3 188.5 -84t85.5 -195q0 -72 -32.5 -141.5t-73 -115.5 t-103.5 -103q-127 -103 -129 -158q0 -66 93 -66q44 0 76 40.5t36 111.5h227q-1 -103 -32.5 -183.5t-83 -127.5t-111.5 -71t-125 -24q-156 0 -252 84.5t-102 225.5zM301 1305q0 64 46 108.5t112 44.5q65 0 109 -44t44 -109t-44.5 -109.5t-108.5 -44.5q-66 0 -112 45t-46 109z " />
<glyph unicode="&#xc0;" horiz-adv-x="1245" d="M6 0l612 1456l619 -1456h-233l-144 336h-471l-137 -336h-246zM420 1843l172 99l233 -295l-129 -88zM473 555h295l-150 356z" />
<glyph unicode="&#xc1;" horiz-adv-x="1245" d="M6 0l612 1456l619 -1456h-233l-144 336h-471l-137 -336h-246zM399 1651l254 317l189 -94l-303 -315zM473 555h295l-150 356z" />
<glyph unicode="&#xc2;" horiz-adv-x="1245" d="M6 0l612 1456l619 -1456h-233l-144 336h-471l-137 -336h-246zM313 1626l224 242h174l221 -242l-168 -67l-139 131l-142 -131zM473 555h295l-150 356z" />
<glyph unicode="&#xc3;" horiz-adv-x="1245" d="M6 0l612 1456l619 -1456h-233l-144 336h-471l-137 -336h-246zM223 1630q47 63 114 112t146 50q91 0 172 -41q63 -35 90 -35h5q62 0 108 76l160 -68q-27 -64 -107 -114.5t-157 -50.5h-4h-13q-80 0 -153 36q-68 35 -99 37h-4q-25 0 -47.5 -12t-35 -25.5t-29.5 -35.5z M473 555h295l-150 356z" />
<glyph unicode="&#xc4;" horiz-adv-x="1245" d="M6 0l612 1456l619 -1456h-233l-144 336h-471l-137 -336h-246zM279 1706q0 61 42 104t103 43q62 0 104.5 -43t42.5 -104t-42.5 -104t-104.5 -43q-61 0 -103 43t-42 104zM473 555h295l-150 356zM674 1706q0 61 42 104t103 43t103.5 -43.5t42.5 -103.5t-42.5 -103.5 t-103.5 -43.5t-103 43t-42 104z" />
<glyph unicode="&#xc5;" horiz-adv-x="1245" d="M6 0l612 1456l619 -1456h-233l-138 336h-483l-139 -336h-238zM428 1716q0 79 56 136t137 57q80 0 136.5 -55.5t59.5 -137.5q0 -78 -57.5 -134t-138.5 -56q-79 0 -136 55.5t-57 134.5zM469 555h305l-156 356zM567 1716q0 -22 15.5 -37.5t38.5 -15.5q24 0 40.5 15.5 t16.5 37.5t-17 37.5t-40 15.5t-38.5 -14.5t-15.5 -38.5z" />
<glyph unicode="&#xc7;" horiz-adv-x="1210" d="M86 692q0 352 177.5 558t481.5 206q234 0 433 -160l-117 -176q-152 90 -305 90q-188 0 -291 -133.5t-103 -384.5q0 -246 99.5 -370.5t294.5 -124.5q144 0 286 82l136 -162q-182 -156 -433 -156q-306 0 -482.5 191t-176.5 540zM465 -336l190 281h174l-153 -396z" />
<glyph unicode="&#xc8;" horiz-adv-x="1093" d="M141 0v1434h854v-226h-616v-262h616v-223h-616v-504h633v-219h-871zM375 1843l172 99l233 -295l-129 -88z" />
<glyph unicode="&#xc9;" horiz-adv-x="1093" d="M141 0v1434h854v-226h-616v-262h616v-223h-616v-504h633v-219h-871zM354 1651l254 317l189 -94l-303 -315z" />
<glyph unicode="&#xca;" horiz-adv-x="1093" d="M141 0v1434h854v-226h-616v-262h616v-223h-616v-504h633v-219h-871zM268 1626l224 242h174l221 -242l-168 -67l-139 131l-142 -131z" />
<glyph unicode="&#xcb;" horiz-adv-x="1093" d="M141 0v1434h854v-226h-616v-262h616v-223h-616v-504h633v-219h-871zM233 1706q0 60 42.5 103.5t103.5 43.5q62 0 104.5 -43t42.5 -104t-42.5 -104t-104.5 -43q-61 0 -103.5 43.5t-42.5 103.5zM629 1706q0 61 42 104t103 43t103.5 -43.5t42.5 -103.5t-42.5 -103.5 t-103.5 -43.5t-103 43t-42 104z" />
<glyph unicode="&#xcc;" horiz-adv-x="505" d="M49 1843l172 99l234 -295l-127 -88zM141 0v1434h224v-1434h-224z" />
<glyph unicode="&#xcd;" horiz-adv-x="505" d="M33 1651l254 317l188 -94l-303 -315zM141 0v1434h224v-1434h-224z" />
<glyph unicode="&#xce;" horiz-adv-x="505" d="M-57 1626l225 242h172l221 -242l-168 -67l-139 131l-139 -131zM141 0v1434h224v-1434h-224z" />
<glyph unicode="&#xcf;" horiz-adv-x="505" d="M-90 1706q0 61 42 104t103 43q62 0 105 -43t43 -104t-43 -104t-105 -43q-61 0 -103 43t-42 104zM141 0v1434h224v-1434h-224zM305 1706q0 60 42.5 103.5t103.5 43.5t103 -43t42 -104t-42 -104t-103 -43t-103.5 43.5t-42.5 103.5z" />
<glyph unicode="&#xd0;" horiz-adv-x="1429" d="M59 526v207h142v613h383q389 0 572 -162t183 -512q0 -348 -182 -510t-573 -162h-383v526h-142zM453 231h157q225 0 328.5 107t103.5 334q0 225 -103.5 329.5t-328.5 104.5h-157v-373h135v-207h-135v-295z" />
<glyph unicode="&#xd1;" horiz-adv-x="1288" d="M141 0v1434h19l774 -865v865h227v-1434h-20l-770 829v-829h-230zM254 1630q47 63 114 112t146 50q91 0 172 -41q62 -35 90 -35h4q63 0 109 76l160 -68q-26 -64 -107 -114.5t-158 -50.5h-4h-12q-81 0 -154 36q-68 35 -98 37h-4q-36 0 -61.5 -19.5t-51.5 -53.5z" />
<glyph unicode="&#xd2;" horiz-adv-x="1595" d="M80 711q0 223 89.5 392.5t252.5 261t377 91.5q158 0 290.5 -53t226 -149t145.5 -235.5t52 -307.5q0 -337 -193 -536.5t-521 -199.5t-523.5 199.5t-195.5 536.5zM346 711q0 -230 127 -368t326 -138q195 0 321.5 137t126.5 369q0 228 -125.5 365.5t-322.5 137.5 q-196 0 -324.5 -135.5t-128.5 -367.5zM594 1843l172 99l233 -295l-129 -88z" />
<glyph unicode="&#xd3;" horiz-adv-x="1595" d="M80 711q0 223 89.5 392.5t252.5 261t377 91.5q158 0 290.5 -53t226 -149t145.5 -235.5t52 -307.5q0 -337 -193 -536.5t-521 -199.5t-523.5 199.5t-195.5 536.5zM346 711q0 -230 127 -368t326 -138q195 0 321.5 137t126.5 369q0 228 -125.5 365.5t-322.5 137.5 q-196 0 -324.5 -135.5t-128.5 -367.5zM575 1651l254 317l189 -94l-303 -315z" />
<glyph unicode="&#xd4;" horiz-adv-x="1595" d="M80 711q0 223 89.5 392.5t252.5 261t377 91.5q158 0 290.5 -53t226 -149t145.5 -235.5t52 -307.5q0 -337 -193 -536.5t-521 -199.5t-523.5 199.5t-195.5 536.5zM346 711q0 -230 127 -368t326 -138q195 0 321.5 137t126.5 369q0 228 -125.5 365.5t-322.5 137.5 q-196 0 -324.5 -135.5t-128.5 -367.5zM487 1626l224 242h174l221 -242l-168 -67l-139 131l-142 -131z" />
<glyph unicode="&#xd5;" horiz-adv-x="1595" d="M80 711q0 223 89.5 392.5t252.5 261t377 91.5q158 0 290.5 -53t226 -149t145.5 -235.5t52 -307.5q0 -337 -193 -536.5t-521 -199.5t-523.5 199.5t-195.5 536.5zM346 711q0 -230 127 -368t326 -138q195 0 321.5 137t126.5 369q0 228 -125.5 365.5t-322.5 137.5 q-196 0 -324.5 -135.5t-128.5 -367.5zM399 1630q47 63 114 112t146 50q91 0 172 -41q63 -35 91 -35h4q62 0 108 76l160 -68q-27 -64 -107 -114.5t-157 -50.5h-4h-13q-80 0 -153 36q-68 35 -98 37h-5q-25 0 -47.5 -12t-35 -25.5t-29.5 -35.5z" />
<glyph unicode="&#xd6;" horiz-adv-x="1595" d="M80 711q0 223 89.5 392.5t252.5 261t377 91.5q158 0 290.5 -53t226 -149t145.5 -235.5t52 -307.5q0 -337 -193 -536.5t-521 -199.5t-523.5 199.5t-195.5 536.5zM346 711q0 -230 127 -368t326 -138q195 0 321.5 137t126.5 369q0 228 -125.5 365.5t-322.5 137.5 q-196 0 -324.5 -135.5t-128.5 -367.5zM453 1706q0 61 42 104t103 43q62 0 104.5 -43t42.5 -104t-42.5 -104t-104.5 -43q-61 0 -103 43t-42 104zM848 1706q0 61 42 104t103 43t103.5 -43.5t42.5 -103.5t-42.5 -103.5t-103.5 -43.5t-103 43t-42 104z" />
<glyph unicode="&#xd7;" horiz-adv-x="1175" d="M63 207l367 368l-367 371l154 152l371 -371l368 371l158 -152l-371 -371l371 -368l-158 -154l-368 369l-371 -369z" />
<glyph unicode="&#xd8;" horiz-adv-x="1599" d="M82 711q0 349 197 559.5t522 210.5q80 0 153 -25l52 150h227l-68 -230q166 -89 258.5 -261t92.5 -404q0 -348 -193.5 -554t-521.5 -206q-78 0 -146 26l-47 -149h-227l68 223q-175 79 -271 249.5t-96 410.5zM348 711q0 -160 47.5 -280t130.5 -179l359 993q-54 -12 -84 -12 q-197 0 -325 -140t-128 -382zM723 178q37 15 78 15q196 0 322 139.5t126 378.5q0 156 -44.5 273.5t-123.5 182.5z" />
<glyph unicode="&#xd9;" horiz-adv-x="1292" d="M129 551v883h254v-859q0 -194 61.5 -280t204.5 -86q139 0 202.5 86.5t63.5 279.5v859h248v-883q0 -288 -129.5 -432t-384.5 -144q-520 0 -520 576zM444 1843l172 99l234 -295l-129 -88z" />
<glyph unicode="&#xda;" horiz-adv-x="1292" d="M129 551v883h254v-859q0 -194 61.5 -280t204.5 -86q139 0 202.5 86.5t63.5 279.5v859h248v-883q0 -288 -129.5 -432t-384.5 -144q-520 0 -520 576zM424 1651l254 317l188 -94l-303 -315z" />
<glyph unicode="&#xdb;" horiz-adv-x="1292" d="M129 551v883h254v-859q0 -194 61.5 -280t204.5 -86q139 0 202.5 86.5t63.5 279.5v859h248v-883q0 -288 -129.5 -432t-384.5 -144q-520 0 -520 576zM338 1626l223 242h174l221 -242l-168 -67l-139 131l-141 -131z" />
<glyph unicode="&#xdc;" horiz-adv-x="1292" d="M129 551v883h254v-859q0 -194 61.5 -280t204.5 -86q139 0 202.5 86.5t63.5 279.5v859h248v-883q0 -288 -129.5 -432t-384.5 -144q-520 0 -520 576zM303 1706q0 60 42.5 103.5t103.5 43.5q62 0 104.5 -43t42.5 -104t-42.5 -104t-104.5 -43q-61 0 -103.5 43.5t-42.5 103.5z M698 1706q0 60 42.5 103.5t103.5 43.5t103 -43t42 -104t-42 -104t-103 -43t-103.5 43.5t-42.5 103.5z" />
<glyph unicode="&#xdd;" d="M10 1434h252l322 -547l319 547h246l-447 -758v-676h-249v676zM358 1651l254 317l189 -94l-303 -315z" />
<glyph unicode="&#xde;" horiz-adv-x="1069" d="M141 0v1434h240v-258h162q229 0 348 -109.5t119 -321.5q0 -423 -467 -432h-162v-313h-240zM381 555h162q84 0 131 48.5t47 141.5q0 88 -46 137.5t-132 49.5h-162v-377z" />
<glyph unicode="&#xdf;" horiz-adv-x="1183" d="M70 737l88 172v119q0 192 126.5 310t329.5 118q73 0 144 -32t126 -86t88.5 -131t33.5 -160v-5v-200q-141 0 -207 -25t-66 -86v-2q0 -19 19.5 -41t52.5 -44t60.5 -37.5t58.5 -31.5t32 -16q83 -58 113.5 -116t30.5 -136q0 -33 -2 -49q-3 -125 -95 -203t-251 -78 q-36 0 -74 8t-83.5 27t-89 58t-75.5 94l170 131q35 -37 78.5 -69.5t73.5 -32.5q43 0 68.5 24t25.5 70q0 55 -33.5 92t-95.5 67q-115 59 -166 125t-51 160q0 118 66.5 186.5t197.5 98.5v18q0 81 -44.5 128.5t-109.5 47.5q-80 0 -138.5 -51t-61.5 -133v-1026h-252v737h-88z " />
<glyph unicode="&#xe0;" horiz-adv-x="1146" d="M96 457q0 215 120 348t312 133q176 0 252 -143v123h226v-918h-226v117q-76 -137 -252 -137q-192 0 -312 131t-120 346zM348 1325l172 98l234 -295l-129 -88zM369 457q0 -121 50.5 -190.5t141.5 -69.5q103 0 161 69t58 191q0 120 -58 188t-161 68q-89 0 -140.5 -67 t-51.5 -189z" />
<glyph unicode="&#xe1;" horiz-adv-x="1146" d="M96 457q0 215 120 348t312 133q176 0 252 -143v123h226v-918h-226v117q-76 -137 -252 -137q-192 0 -312 131t-120 346zM369 457q0 -121 50.5 -190.5t141.5 -69.5q103 0 161 69t58 191q0 120 -58 188t-161 68q-89 0 -140.5 -67t-51.5 -189zM379 1133l254 317l188 -94 l-303 -316z" />
<glyph unicode="&#xe2;" horiz-adv-x="1146" d="M96 457q0 215 120 348t312 133q176 0 252 -143v123h226v-918h-226v117q-76 -137 -252 -137q-192 0 -312 131t-120 346zM242 1108l223 242h174l221 -242l-168 -68l-139 131l-141 -131zM369 457q0 -121 50.5 -190.5t141.5 -69.5q103 0 161 69t58 191q0 120 -58 188t-161 68 q-89 0 -140.5 -67t-51.5 -189z" />
<glyph unicode="&#xe3;" horiz-adv-x="1146" d="M96 457q0 215 120 348t312 133q176 0 252 -143v123h226v-918h-226v117q-76 -137 -252 -137q-192 0 -312 131t-120 346zM154 1112q47 63 114 112t146 50q91 0 172 -41q63 -35 90 -35h4q62 0 108 76l160 -68q-27 -64 -107 -115t-157 -51h-4h-12q-79 0 -154 37 q-68 35 -98 37h-4q-25 0 -47.5 -12.5t-35.5 -26t-30 -35.5zM369 457q0 -121 50.5 -190.5t141.5 -69.5q103 0 161 69t58 191q0 120 -58 188t-161 68q-89 0 -140.5 -67t-51.5 -189z" />
<glyph unicode="&#xe4;" horiz-adv-x="1146" d="M96 457q0 215 120 348t312 133q176 0 252 -143v123h226v-918h-226v117q-76 -137 -252 -137q-192 0 -312 131t-120 346zM207 1188q0 61 42 104t103 43q62 0 105 -43t43 -104t-43 -104.5t-105 -43.5q-61 0 -103 43.5t-42 104.5zM369 457q0 -121 50.5 -190.5t141.5 -69.5 q103 0 161 69t58 191q0 120 -58 188t-161 68q-89 0 -140.5 -67t-51.5 -189zM602 1188q0 60 42.5 103.5t103.5 43.5t103 -43t42 -104t-42 -104.5t-103 -43.5t-103.5 43.5t-42.5 104.5z" />
<glyph unicode="&#xe5;" horiz-adv-x="1146" d="M96 457q0 215 120 348t312 133q176 0 252 -143v123h226v-918h-226v117q-76 -137 -252 -137q-192 0 -312 131t-120 346zM356 1231q0 79 56 135.5t137 56.5q80 0 136.5 -55t59.5 -137q0 -78 -57.5 -134.5t-138.5 -56.5q-79 0 -136 56t-57 135zM369 457q0 -121 50.5 -190.5 t141.5 -69.5q103 0 161 69t58 191q0 120 -58 188t-161 68q-89 0 -140.5 -67t-51.5 -189zM496 1231q0 -22 15 -37.5t38 -15.5q24 0 40.5 15.5t16.5 37.5t-17 37.5t-40 15.5q-22 0 -37.5 -14.5t-15.5 -38.5z" />
<glyph unicode="&#xe7;" horiz-adv-x="991" d="M86 455q0 201 142 342t341 141q213 -12 338 -145l-145 -152q-88 88 -189 88q-97 0 -167 -82t-70 -192q0 -111 69.5 -190t167.5 -79q107 0 189 82l145 -164q-86 -67 -165 -97t-173 -30q-130 0 -241 63t-176.5 173.5t-65.5 241.5zM317 -334l170 273h168l-135 -390z" />
<glyph unicode="&#xe8;" horiz-adv-x="1103" d="M86 455q0 203 138 343t341 140h10q197 0 319 -117.5t122 -316.5v-84h-694q0 -96 75.5 -168t180.5 -72h8q156 0 264 121l145 -121q-65 -96 -176.5 -148.5t-243.5 -54.5q-134 0 -246.5 63t-177.5 173t-65 242zM342 596h442q-14 69 -73 101t-144 32q-74 0 -143 -44t-82 -89z M348 1325l172 98l234 -295l-129 -88z" />
<glyph unicode="&#xe9;" horiz-adv-x="1103" d="M86 455q0 203 138 343t341 140h10q197 0 319 -117.5t122 -316.5v-84h-694q0 -96 75.5 -168t180.5 -72h8q156 0 264 121l145 -121q-65 -96 -176.5 -148.5t-243.5 -54.5q-134 0 -246.5 63t-177.5 173t-65 242zM342 596h442q-14 69 -73 101t-144 32q-74 0 -143 -44t-82 -89z M397 1133l254 317l189 -94l-303 -316z" />
<glyph unicode="&#xea;" horiz-adv-x="1103" d="M86 455q0 203 138 343t341 140h10q197 0 319 -117.5t122 -316.5v-84h-694q0 -96 75.5 -168t180.5 -72h8q156 0 264 121l145 -121q-65 -96 -176.5 -148.5t-243.5 -54.5q-134 0 -246.5 63t-177.5 173t-65 242zM242 1108l223 242h174l221 -242l-168 -68l-139 131l-141 -131z M342 596h442q-14 69 -73 101t-144 32q-74 0 -143 -44t-82 -89z" />
<glyph unicode="&#xeb;" horiz-adv-x="1103" d="M86 455q0 203 138 343t341 140h10q197 0 319 -117.5t122 -316.5v-84h-694q0 -96 75.5 -168t180.5 -72h8q156 0 264 121l145 -121q-65 -96 -176.5 -148.5t-243.5 -54.5q-134 0 -246.5 63t-177.5 173t-65 242zM209 1188q0 61 42 104t103 43q62 0 105 -43t43 -104 t-43 -104.5t-105 -43.5q-61 0 -103 43.5t-42 104.5zM342 596h442q-14 69 -73 101t-144 32q-74 0 -143 -44t-82 -89zM604 1188q0 60 42.5 103.5t103.5 43.5t103 -43t42 -104t-42 -104.5t-103 -43.5t-103.5 43.5t-42.5 104.5z" />
<glyph unicode="&#xec;" horiz-adv-x="509" d="M53 1325l172 98l234 -295l-131 -88zM141 0v918h228v-918h-228z" />
<glyph unicode="&#xed;" horiz-adv-x="509" d="M33 1133l254 317l188 -94l-303 -316zM141 0v918h228v-918h-228z" />
<glyph unicode="&#xee;" horiz-adv-x="509" d="M-53 1108l221 242h176l221 -242l-168 -68l-139 131l-143 -131zM141 0v918h228v-918h-228z" />
<glyph unicode="&#xef;" horiz-adv-x="509" d="M-88 1188q0 61 42 104t103 43q62 0 105 -43t43 -104t-43 -104.5t-105 -43.5q-61 0 -103 43.5t-42 104.5zM141 0v918h228v-918h-228zM307 1188q0 60 42.5 103.5t103.5 43.5t103 -43t42 -104t-42 -104.5t-103 -43.5t-103.5 43.5t-42.5 104.5z" />
<glyph unicode="&#xf0;" horiz-adv-x="1138" d="M66 1296l182 64l-131 176h256l82 -96l258 80l67 -140l-225 -73l276 -344q107 -116 156 -235t49 -265q0 -218 -130 -350.5t-341 -132.5q-210 0 -339.5 132.5t-129.5 350.5q0 216 127 351.5t332 135.5q15 0 31 -16l-228 291l-215 -76zM358 463q0 -114 56 -183t151 -69 q91 0 145 69t54 183q-2 65 -19.5 121t-56.5 96.5t-92 40.5h-2q-111 0 -173.5 -66.5t-62.5 -191.5z" />
<glyph unicode="&#xf1;" horiz-adv-x="1120" d="M141 0v913h230v-125q94 150 254 150q179 0 272.5 -101t93.5 -300v-537h-252v532q0 178 -147 181q-103 0 -160.5 -56t-60.5 -153v-504h-230zM170 1112q47 63 114 112t146 50q91 0 172 -41q62 -35 90 -35h4q63 0 109 76l160 -68q-27 -64 -107.5 -115t-157.5 -51h-4h-12 q-79 0 -154 37q-68 35 -98 37h-4q-25 0 -47.5 -12.5t-35.5 -26t-30 -35.5z" />
<glyph unicode="&#xf2;" d="M86 455q0 133 66.5 244t180 175t247.5 64q133 0 245 -63.5t177 -174t65 -243.5t-65 -243.5t-177 -173.5t-245 -63q-134 0 -247.5 63t-180 173t-66.5 242zM342 455q0 -111 70.5 -190t169.5 -79q98 0 167.5 79t69.5 190q0 110 -70 192t-167 82q-99 0 -169.5 -82t-70.5 -192 zM373 1325l172 98l233 -295l-129 -88z" />
<glyph unicode="&#xf3;" d="M86 455q0 133 66.5 244t180 175t247.5 64q133 0 245 -63.5t177 -174t65 -243.5t-65 -243.5t-177 -173.5t-245 -63q-134 0 -247.5 63t-180 173t-66.5 242zM342 455q0 -111 70.5 -190t169.5 -79q98 0 167.5 79t69.5 190q0 110 -70 192t-167 82q-99 0 -169.5 -82t-70.5 -192 zM356 1133l254 317l189 -94l-303 -316z" />
<glyph unicode="&#xf4;" d="M86 455q0 133 66.5 244t180 175t247.5 64q133 0 245 -63.5t177 -174t65 -243.5t-65 -243.5t-177 -173.5t-245 -63q-134 0 -247.5 63t-180 173t-66.5 242zM266 1108l223 242h175l221 -242l-168 -68l-139 131l-142 -131zM342 455q0 -111 70.5 -190t169.5 -79q98 0 167.5 79 t69.5 190q0 110 -70 192t-167 82q-99 0 -169.5 -82t-70.5 -192z" />
<glyph unicode="&#xf5;" d="M86 455q0 133 66.5 244t180 175t247.5 64q133 0 245 -63.5t177 -174t65 -243.5t-65 -243.5t-177 -173.5t-245 -63q-134 0 -247.5 63t-180 173t-66.5 242zM180 1112q47 63 114 112t146 50q91 0 172 -41q62 -35 90 -35h5q62 0 108 76l160 -68q-27 -64 -107 -115t-157 -51 h-4h-13q-78 0 -153 37q-68 35 -99 37h-4q-25 0 -47.5 -12.5t-34.5 -25.5t-30 -36zM342 455q0 -111 70.5 -190t169.5 -79q98 0 167.5 79t69.5 190q0 110 -70 192t-167 82q-99 0 -169.5 -82t-70.5 -192z" />
<glyph unicode="&#xf6;" d="M86 455q0 133 66.5 244t180 175t247.5 64q133 0 245 -63.5t177 -174t65 -243.5t-65 -243.5t-177 -173.5t-245 -63q-134 0 -247.5 63t-180 173t-66.5 242zM233 1188q0 60 42.5 103.5t103.5 43.5q62 0 104.5 -43t42.5 -104t-42.5 -104.5t-104.5 -43.5q-61 0 -103.5 43.5 t-42.5 104.5zM342 455q0 -111 70.5 -190t169.5 -79q98 0 167.5 79t69.5 190q0 110 -70 192t-167 82q-99 0 -169.5 -82t-70.5 -192zM629 1188q0 61 42 104t103 43t103.5 -43.5t42.5 -103.5q0 -61 -42.5 -104.5t-103.5 -43.5t-103 43.5t-42 104.5z" />
<glyph unicode="&#xf7;" horiz-adv-x="1040" d="M51 399v201h936v-201h-936zM362 205q0 62 45 104.5t109 42.5t109 -42.5t45 -104.5q0 -59 -45 -102.5t-109 -43.5t-109 43.5t-45 102.5zM362 793q0 63 44.5 105t109.5 42t109.5 -42t44.5 -105q0 -59 -45 -101.5t-109 -42.5t-109 42.5t-45 101.5z" />
<glyph unicode="&#xf8;" horiz-adv-x="1187" d="M92 451q0 214 147 360.5t357 146.5q35 0 63 -14l19 80h186l-26 -141q116 -58 186 -172.5t70 -257.5q0 -211 -145 -356.5t-353 -145.5q-25 0 -37 12l-20 -88h-189l31 137q-130 52 -209.5 170t-79.5 269zM369 451q0 -76 23 -138.5t59 -95.5l157 504q-99 0 -169 -79.5 t-70 -190.5zM608 170q90 0 153.5 82.5t63.5 198.5q0 70 -16.5 130.5t-44.5 96.5z" />
<glyph unicode="&#xf9;" horiz-adv-x="1110" d="M129 377v541h246v-535q0 -86 51.5 -136t132.5 -50q90 0 130 51t42 162v508h250v-541q0 -185 -112.5 -292.5t-299.5 -107.5h-10q-186 0 -308 104.5t-122 295.5zM352 1325l172 98l234 -295l-129 -88z" />
<glyph unicode="&#xfa;" horiz-adv-x="1110" d="M129 377v541h246v-535q0 -86 51.5 -136t132.5 -50q90 0 130 51t42 162v508h250v-541q0 -185 -112.5 -292.5t-299.5 -107.5h-10q-186 0 -308 104.5t-122 295.5zM334 1133l254 317l188 -94l-303 -316z" />
<glyph unicode="&#xfb;" horiz-adv-x="1110" d="M129 377v541h246v-535q0 -86 51.5 -136t132.5 -50q90 0 130 51t42 162v508h250v-541q0 -185 -112.5 -292.5t-299.5 -107.5h-10q-186 0 -308 104.5t-122 295.5zM246 1108l223 242h174l221 -242l-168 -68l-139 131l-141 -131z" />
<glyph unicode="&#xfc;" horiz-adv-x="1110" d="M129 377v541h246v-535q0 -86 51.5 -136t132.5 -50q90 0 130 51t42 162v508h250v-541q0 -185 -112.5 -292.5t-299.5 -107.5h-10q-186 0 -308 104.5t-122 295.5zM211 1188q0 61 42 104t103 43q62 0 105 -43t43 -104t-43 -104.5t-105 -43.5q-61 0 -103 43.5t-42 104.5z M606 1188q0 60 42.5 103.5t103.5 43.5t103 -43t42 -104t-42 -104.5t-103 -43.5t-103.5 43.5t-42.5 104.5z" />
<glyph unicode="&#xfd;" horiz-adv-x="1177" d="M125 459v459h258v-459q0 -126 51 -194t148 -68q100 0 154.5 68.5t54.5 193.5v459h245v-895q0 -241 -115 -362.5t-352 -121.5q-5 0 -15 -1t-15 -1q-110 0 -214 50.5t-165 142.5l174 147q34 -50 89.5 -78t123.5 -28q244 0 244 225v121q-67 -140 -242 -140 q-189 0 -306.5 130.5t-117.5 351.5zM358 1133l254 317l189 -94l-303 -316z" />
<glyph unicode="&#xfe;" horiz-adv-x="1153" d="M141 -461v1997h226v-713q44 81 103.5 119.5t147.5 38.5q194 0 312.5 -143.5t118.5 -378.5q0 -231 -118.5 -373.5t-312.5 -142.5q-87 0 -146.5 34t-104.5 115v-553h-226zM367 459q0 -130 57 -206.5t162 -76.5q89 0 140.5 75.5t51.5 207.5q0 131 -51.5 206.5t-140.5 75.5 q-100 0 -159.5 -74.5t-59.5 -207.5z" />
<glyph unicode="&#xff;" horiz-adv-x="1177" d="M125 459v459h258v-459q0 -126 51 -194t148 -68q100 0 154.5 68.5t54.5 193.5v459h245v-895q0 -241 -115 -362.5t-352 -121.5q-5 0 -15 -1t-15 -1q-110 0 -214 50.5t-165 142.5l174 147q34 -50 89.5 -78t123.5 -28q244 0 244 225v121q-67 -140 -242 -140 q-189 0 -306.5 130.5t-117.5 351.5zM238 1188q0 61 42 104t103 43q62 0 104.5 -43t42.5 -104t-42.5 -104.5t-104.5 -43.5q-61 0 -103 43.5t-42 104.5zM633 1188q0 61 42 104t103 43t103.5 -43.5t42.5 -103.5q0 -61 -42.5 -104.5t-103.5 -43.5t-103 43.5t-42 104.5z" />
<glyph unicode="&#x178;" d="M10 1434h252l322 -547l319 547h246l-447 -758v-676h-249v676zM236 1706q0 61 42 104t103 43q62 0 104.5 -43t42.5 -104t-42.5 -104t-104.5 -43q-61 0 -103 43t-42 104zM631 1706q0 61 42 104t103 43t103.5 -43.5t42.5 -103.5t-42.5 -103.5t-103.5 -43.5t-103 43t-42 104z " />
<glyph unicode="&#x2c6;" horiz-adv-x="782" d="M82 1141l223 241h174l221 -241l-168 -68l-139 131l-141 -131z" />
<glyph unicode="&#x2dc;" horiz-adv-x="966" d="M82 1208q47 63 114 112t146 50q91 0 172 -41q63 -35 90 -35h4q63 0 109 76l160 -67q-27 -64 -107.5 -115t-157.5 -51h-4h-12q-79 0 -154 37q-66 34 -98 36h-4q-36 0 -61.5 -19.5t-51.5 -53.5z" />
<glyph unicode="&#x2000;" horiz-adv-x="984" />
<glyph unicode="&#x2001;" horiz-adv-x="1968" />
<glyph unicode="&#x2002;" horiz-adv-x="984" />
<glyph unicode="&#x2003;" horiz-adv-x="1968" />
<glyph unicode="&#x2004;" horiz-adv-x="656" />
<glyph unicode="&#x2005;" horiz-adv-x="492" />
<glyph unicode="&#x2006;" horiz-adv-x="328" />
<glyph unicode="&#x2007;" horiz-adv-x="328" />
<glyph unicode="&#x2008;" horiz-adv-x="246" />
<glyph unicode="&#x2009;" horiz-adv-x="393" />
<glyph unicode="&#x200a;" horiz-adv-x="109" />
<glyph unicode="&#x2010;" horiz-adv-x="835" d="M160 369v176h516v-176h-516z" />
<glyph unicode="&#x2011;" horiz-adv-x="835" d="M160 369v176h516v-176h-516z" />
<glyph unicode="&#x2012;" horiz-adv-x="835" d="M160 369v176h516v-176h-516z" />
<glyph unicode="&#x2013;" horiz-adv-x="1024" d="M160 369v176h704v-176h-704z" />
<glyph unicode="&#x2014;" horiz-adv-x="2048" d="M160 369v176h1728v-176h-1728z" />
<glyph unicode="&#x2018;" horiz-adv-x="487" d="M106 1030v156l125 248h152l-53 -248v-156h-224z" />
<glyph unicode="&#x2019;" horiz-adv-x="485" d="M104 1047l52 245v142h221v-142l-123 -245h-150z" />
<glyph unicode="&#x201a;" horiz-adv-x="514" d="M102 -193l52 240v158h223v-158l-125 -240h-150z" />
<glyph unicode="&#x201c;" horiz-adv-x="821" d="M104 1030v158l142 246h170l-62 -246v-158h-250zM408 1030v158l143 246h168l-57 -246v-158h-254z" />
<glyph unicode="&#x201d;" horiz-adv-x="821" d="M96 1030l60 248v156h247v-156l-137 -248h-170zM401 1030l58 248v156h252v-156l-138 -248h-172z" />
<glyph unicode="&#x201e;" horiz-adv-x="823" d="M98 -193l58 240v158h250v-158l-140 -240h-168zM403 -193l58 240v158h252v-158l-138 -240h-172z" />
<glyph unicode="&#x2022;" horiz-adv-x="710" d="M94 578q0 110 74 188t182 78q106 0 181 -77t75 -189q0 -111 -76 -191t-184 -80q-103 0 -177.5 78.5t-74.5 192.5z" />
<glyph unicode="&#x2026;" horiz-adv-x="1517" d="M117 98q0 53 38 91t93 38q54 0 94.5 -38.5t40.5 -90.5q0 -55 -40 -92t-95 -37q-56 0 -93.5 37t-37.5 92zM623 98q0 53 38 91t93 38q54 0 94.5 -38.5t40.5 -90.5q0 -55 -40 -92t-95 -37q-56 0 -93.5 37t-37.5 92zM1128 98q0 53 38.5 91t93.5 38q54 0 94.5 -38.5 t40.5 -90.5q0 -55 -40 -92t-95 -37q-56 0 -94 37t-38 92z" />
<glyph unicode="&#x202f;" horiz-adv-x="393" />
<glyph unicode="&#x2039;" horiz-adv-x="618" d="M57 436v105l439 325v-209l-203 -168l203 -170v-204z" />
<glyph unicode="&#x203a;" horiz-adv-x="618" d="M121 115v204l207 170l-207 168v209l440 -325v-105z" />
<glyph unicode="&#x205f;" horiz-adv-x="492" />
<glyph unicode="&#x20ac;" horiz-adv-x="1148" d="M45 440l59 185h103q-2 14 -2 41q0 29 2 49h-162l59 180h125q38 221 177 347t346 126q176 0 348 -158l-109 -163q-104 71 -231 71q-110 0 -181 -57t-96 -166h480l-62 -180h-436q-2 -14 -2 -45t2 -45h379l-66 -185h-295q22 -106 93.5 -164.5t183.5 -58.5q124 0 237 82 l103 -158v-18q-162 -146 -348 -146q-208 0 -346 120t-177 343h-184z" />
<glyph unicode="&#x2122;" horiz-adv-x="1417" d="M74 1278v156h512v-156h-168v-367h-178v367h-166zM625 911v523h217l112 -183l107 183h215v-523h-168v367l-98 -236h-109l-108 236v-367h-168z" />
<glyph unicode="&#x25fc;" horiz-adv-x="921" d="M0 0v922h922v-922h-922z" />
</font>
</defs>
</svg>
